<?xml version="1.0" encoding="UTF-8" standalone="no"?>
<svg
   width="231"
   height="30"
   version="1.1"
   id="svg1"
   xmlns="http://www.w3.org/2000/svg"
   xmlns:svg="http://www.w3.org/2000/svg">
  <defs
     id="defs1" />
  <path
     d="M 5.2880859,9.0693359 V 23 H 2.6513672 V 9.0693359 H 0.42480469 V 7.1503906 H 2.6513672 V 5.3632812 q 0,-2.1679687 0.9521484,-3.1201171 0.9521485,-0.9521485 2.9150391,-0.9521485 1.0986328,0 1.8603516,0.1757813 V 3.4736328 Q 7.7197266,3.3564453 7.2070312,3.3564453 q -1.0107421,0 -1.4648437,0.5126953 Q 5.2880859,4.3818359 5.2880859,5.7294922 V 7.1503906 H 8.3789063 V 9.0693359 Z M 12.37793,15.631836 q 0,2.724609 1.127929,4.204101 1.12793,1.479493 3.295899,1.479493 1.713867,0 2.739258,-0.688477 1.040039,-0.688476 1.40625,-1.743164 l 2.314453,0.65918 q -1.420899,3.75 -6.459961,3.75 -3.515625,0 -5.361328,-2.094727 -1.831055,-2.094726 -1.831055,-6.225586 0,-3.925781 1.831055,-6.0205076 1.845703,-2.0947265 5.258789,-2.0947265 6.987304,0 6.987304,8.4228511 v 0.351563 z m 8.583984,-2.021484 Q 20.742187,11.105469 19.6875,9.9628906 18.632812,8.8056641 16.655273,8.8056641 q -1.918945,0 -3.046875,1.2890629 -1.113281,1.274414 -1.201171,3.515625 z m 10.12207,9.682617 q -2.387695,0 -3.588867,-1.259766 -1.201172,-1.259766 -1.201172,-3.457031 0,-2.460938 1.611328,-3.779297 1.625977,-1.318359 5.229493,-1.40625 l 3.55957,-0.05859 v -0.864258 q 0,-1.933593 -0.820313,-2.7685542 -0.820312,-0.834961 -2.578125,-0.834961 -1.772461,0 -2.578125,0.600586 -0.805664,0.6005862 -0.966796,1.9189452 L 26.99707,11.134766 q 0.673828,-4.2773441 6.357422,-4.2773441 2.988281,0 4.49707,1.3769531 1.50879,1.3623047 1.50879,3.955078 v 6.826172 q 0,1.171875 0.307617,1.772461 0.307617,0.585937 1.171875,0.585937 0.380859,0 0.864258,-0.102539 v 1.640625 q -0.996094,0.234375 -2.036133,0.234375 -1.464844,0 -2.138672,-0.761718 -0.65918,-0.776368 -0.74707,-2.416993 h -0.08789 q -1.010742,1.816407 -2.358399,2.578125 -1.333007,0.747071 -3.251953,0.747071 z M 31.68457,21.31543 q 1.450196,0 2.578125,-0.65918 1.12793,-0.65918 1.772461,-1.801758 0.65918,-1.157226 0.65918,-2.373047 v -1.303711 l -2.885742,0.05859 q -1.860352,0.0293 -2.827149,0.38086 -0.952148,0.351562 -1.464843,1.083984 -0.512696,0.732422 -0.512696,1.918945 0,1.289063 0.688477,1.992188 0.703125,0.703125 1.992187,0.703125 z m 18.134766,1.567382 q -1.303711,0.351563 -2.666016,0.351563 -3.164062,0 -3.164062,-3.588867 V 9.0693359 H 42.158203 V 7.1503906 h 1.933594 l 0.776367,-3.5449218 h 1.757813 v 3.5449218 h 2.929687 V 9.0693359 H 46.625977 V 19.074219 q 0,1.142578 0.36621,1.611328 0.38086,0.454101 1.303711,0.454101 0.527344,0 1.523438,-0.205078 z M 54.682617,9.8603516 q 0.84961,-1.5527344 2.036133,-2.2705079 1.201172,-0.7324218 3.032227,-0.7324218 2.578125,0 3.793945,1.2890625 1.230469,1.274414 1.230469,4.2919926 V 23 H 62.124023 V 12.951172 q 0,-1.669922 -0.307617,-2.475586 -0.307617,-0.8203126 -1.010742,-1.2011719 -0.703125,-0.3808594 -1.948242,-0.3808594 -1.860352,0 -2.988281,1.2890623 -1.113282,1.289063 -1.113282,3.47168 V 23 H 52.119141 V 1.2617187 h 2.636718 v 5.6542969 q 0,0.8935547 -0.05859,1.8457032 -0.04395,0.9521484 -0.05859,1.0986328 z m 16.083985,5.7714844 q 0,2.724609 1.127929,4.204101 1.12793,1.479493 3.295899,1.479493 1.713867,0 2.739257,-0.688477 1.04004,-0.688476 1.40625,-1.743164 l 2.314454,0.65918 q -1.420899,3.75 -6.459961,3.75 -3.515625,0 -5.361328,-2.094727 -1.831055,-2.094726 -1.831055,-6.225586 0,-3.925781 1.831055,-6.0205076 1.845703,-2.0947265 5.258789,-2.0947265 6.987304,0 6.987304,8.4228511 v 0.351563 z m 8.583984,-2.021484 Q 79.130859,11.105469 78.076172,9.9628906 77.021484,8.8056641 75.043945,8.8056641 q -1.918945,0 -3.046875,1.2890629 -1.113281,1.274414 -1.201172,3.515625 z M 85.488281,23 V 10.841797 q 0,-1.669922 -0.08789,-3.6914064 h 2.490234 q 0.117187,2.6953125 0.117187,3.2373044 h 0.05859 q 0.629883,-2.0361325 1.450196,-2.7832028 0.820312,-0.7470703 2.314453,-0.7470703 0.527343,0 1.069336,0.1464843 v 2.4169922 q -0.527344,-0.1464843 -1.40625,-0.1464843 -1.640625,0 -2.504883,1.4208989 Q 88.125,12.101563 88.125,14.738281 V 23 Z m 9.243164,-6.796875 v -2.34375 h 7.324215 v 2.34375 z M 120.58594,23 h -3.06153 L 114.75586,11.793945 114.22852,9.3183594 Q 114.09668,9.9775391 113.81836,11.222656 113.54004,12.453125 110.83008,23 H 107.7832 L 103.34473,7.1503906 h 2.60742 l 2.68066,10.7666014 q 0.10254,0.351563 0.62989,2.900391 l 0.24902,-1.083985 3.31055,-12.5830074 h 2.82714 l 2.76856,10.8837894 0.67383,2.783203 0.4541,-2.036133 3.00293,-11.6308594 h 2.57812 z m 10.53222,0.292969 q -2.38769,0 -3.58886,-1.259766 -1.20117,-1.259766 -1.20117,-3.457031 0,-2.460938 1.61132,-3.779297 1.62598,-1.318359 5.2295,-1.40625 l 3.55957,-0.05859 v -0.864258 q 0,-1.933593 -0.82032,-2.7685542 -0.82031,-0.834961 -2.57812,-0.834961 -1.77246,0 -2.57813,0.600586 -0.80566,0.6005862 -0.96679,1.9189452 l -2.75391,-0.249023 q 0.67383,-4.2773441 6.35742,-4.2773441 2.98828,0 4.49707,1.3769531 1.50879,1.3623047 1.50879,3.955078 v 6.826172 q 0,1.171875 0.30762,1.772461 0.30762,0.585937 1.17187,0.585937 0.38086,0 0.86426,-0.102539 v 1.640625 q -0.99609,0.234375 -2.03613,0.234375 -1.46485,0 -2.13867,-0.761718 -0.65918,-0.776368 -0.74707,-2.416993 h -0.0879 q -1.01075,1.816407 -2.3584,2.578125 -1.33301,0.747071 -3.25196,0.747071 z m 0.60059,-1.977539 q 1.4502,0 2.57812,-0.65918 1.12793,-0.65918 1.77247,-1.801758 0.65918,-1.157226 0.65918,-2.373047 v -1.303711 l -2.88575,0.05859 q -1.86035,0.0293 -2.82715,0.38086 -0.95214,0.351562 -1.46484,1.083984 -0.51269,0.732422 -0.51269,1.918945 0,1.289063 0.68847,1.992188 0.70313,0.703125 1.99219,0.703125 z M 143.75977,23 V 1.2617187 h 2.63671 V 23 Z m 6.66503,0 V 1.2617187 h 2.63672 V 23 Z m 8.68653,-7.368164 q 0,2.724609 1.12793,4.204101 1.12793,1.479493 3.2959,1.479493 1.71386,0 2.73925,-0.688477 1.04004,-0.688476 1.40625,-1.743164 l 2.31446,0.65918 q -1.4209,3.75 -6.45996,3.75 -3.51563,0 -5.36133,-2.094727 -1.83106,-2.094726 -1.83106,-6.225586 0,-3.925781 1.83106,-6.0205076 1.8457,-2.0947265 5.25879,-2.0947265 6.9873,0 6.9873,8.4228511 v 0.351563 z m 8.58398,-2.021484 q -0.21972,-2.504883 -1.27441,-3.6474614 -1.05469,-1.1572265 -3.03223,-1.1572265 -1.91894,0 -3.04687,1.2890629 -1.11328,1.274414 -1.20118,3.515625 z m 12.17285,9.27246 q -1.30371,0.351563 -2.66601,0.351563 -3.16406,0 -3.16406,-3.588867 V 9.0693359 h -1.83106 V 7.1503906 h 1.93359 l 0.77637,-3.5449218 h 1.75781 v 3.5449218 h 2.92969 V 9.0693359 H 176.6748 V 19.074219 q 0,1.142578 0.36622,1.611328 0.38085,0.454101 1.30371,0.454101 0.52734,0 1.52343,-0.205078 z M 182.82715,23 v -3.208008 h 2.85644 V 23 Z m 21.02051,-7.939453 q 0,4.160156 -1.83106,6.196289 -1.83105,2.036133 -5.31738,2.036133 -3.47168,0 -5.24414,-2.109375 -1.77246,-2.124024 -1.77246,-6.123047 0,-8.2031251 7.10449,-8.2031251 3.63281,0 5.34668,2.0068359 1.71387,1.9921872 1.71387,6.1962892 z m -2.76856,0 q 0,-3.28125 -0.98144,-4.760742 -0.9668,-1.4941409 -3.26661,-1.4941409 -2.31445,0 -3.35449,1.5234379 -1.02539,1.508789 -1.02539,4.731445 0,3.134765 1.01074,4.716797 1.02539,1.567383 3.20801,1.567383 2.37305,0 3.38379,-1.523438 1.02539,-1.523437 1.02539,-4.760742 z M 207.1875,23 V 10.841797 q 0,-1.669922 -0.0879,-3.6914064 h 2.49023 q 0.11719,2.6953125 0.11719,3.2373044 h 0.0586 q 0.62989,-2.0361325 1.4502,-2.7832028 0.82031,-0.7470703 2.31445,-0.7470703 0.52735,0 1.06934,0.1464843 v 2.4169922 q -0.52734,-0.1464843 -1.40625,-0.1464843 -1.64063,0 -2.50488,1.4208989 -0.86426,1.40625 -0.86426,4.042968 V 23 Z m 15.9375,6.225586 q -2.59277,0 -4.13086,-1.025391 -1.53809,-1.010742 -1.97754,-2.885742 l 2.65137,-0.380859 q 0.26367,1.098633 1.15723,1.68457 0.9082,0.600586 2.37304,0.600586 3.94043,0 3.94043,-4.614258 v -2.548828 h -0.0293 q -0.74707,1.523438 -2.05078,2.299805 -1.30371,0.761718 -3.04687,0.761718 -2.91504,0 -4.29199,-1.933593 -1.36231,-1.933594 -1.36231,-6.079102 0,-4.204101 1.46485,-6.1962889 1.47949,-2.0068359 4.48242,-2.0068359 1.68457,0 2.91504,0.7763672 1.24511,0.7617187 1.91894,2.1826172 h 0.0293 q 0,-0.4394532 0.0586,-1.5234375 0.0586,-1.0839844 0.11719,-1.1865235 h 2.50488 q -0.0879,0.7910156 -0.0879,3.2812504 v 12.114257 q 0,6.679688 -6.63574,6.679688 z m 4.01367,-14.150391 q 0,-1.933593 -0.52734,-3.325195 -0.52735,-1.40625 -1.49414,-2.1386719 -0.95215,-0.7470703 -2.16797,-0.7470703 -2.02149,0 -2.94434,1.4648442 -0.92285,1.464843 -0.92285,4.746093 0,3.251953 0.86426,4.672852 0.86426,1.420898 2.95898,1.420898 1.24512,0 2.21192,-0.732422 0.96679,-0.732421 1.49414,-2.094726 0.52734,-1.376953 0.52734,-3.266602 z"
     id="text1"
     style="font-size:30px;font-family:Arial"
/>
</svg>
